<svg width="18" height="18" viewBox="0 0 18 18" fill="none" xmlns="http://www.w3.org/2000/svg">
<path d="M12.283 10.809H11.5067L11.2316 10.5437C12.1945 9.4235 12.7743 7.9692 12.7743 6.38715C12.7743 2.85948 9.91482 0 6.38715 0C2.85948 0 0 2.85948 0 6.38715C0 9.91482 2.85948 12.7743 6.38715 12.7743C7.9692 12.7743 9.4235 12.1945 10.5437 11.2316L10.809 11.5067V12.283L15.7222 17.1863L17.1863 15.7222L12.283 10.809ZM6.38715 10.809C3.94038 10.809 1.96528 8.83392 1.96528 6.38715C1.96528 3.94038 3.94038 1.96528 6.38715 1.96528C8.83392 1.96528 10.809 3.94038 10.809 6.38715C10.809 8.83392 8.83392 10.809 6.38715 10.809Z" fill="#E3E3E3"/>
</svg>
